# xmcd
#
# Track frame offsets:
#	150
#	14646
#	31706
#	52340
#	65279
#	82220
#	104444
#	116615
#	131964
#
# Disc length: 2017 seconds
#
# Revision: 1
# Processed by: cddbd v1.5.2PL0 Copyright (c) Steve Scherf et al.
# Submitted via: audiograbber 1.83.01
#
DISCID=8207df09
DTITLE=Varna - I Wish
DYEAR=2007
DGENRE=Blues
TTITLE0=I Wish
TTITLE1=A Change In The Weather
TTITLE2=It's Over
TTITLE3=Not Just a Date
TTITLE4=In the Mood For Love
TTITLE5=Allaaneruneq
TTITLE6=Stormy Weather
TTITLE7=Doing Fine
TTITLE8=Getting Better
EXTD=
EXTT0=
EXTT1=
EXTT2=
EXTT3=
EXTT4=
EXTT5=
EXTT6=
EXTT7=
EXTT8=
PLAYORDER=
